<svg width="680" height="960" viewBox="0 0 680 960" xmlns="http://www.w3.org/2000/svg">
<title>GrowKind Curso Zero M3 Famílias</title>
<desc>Quando o seu filho perde o chão — Famílias</desc>

<rect width="680" height="960" fill="#1e3028"/>

<path d="M 680 0 A 280 280 0 0 0 400 280" fill="none" stroke="#7aab96" stroke-opacity="0.12" stroke-width="40"/>
<path d="M 680 0 A 280 280 0 0 0 400 280" fill="none" stroke="#7aab96" stroke-opacity="0.20" stroke-width="1.5"/>
<path d="M 680 0 A 200 200 0 0 0 480 200" fill="none" stroke="#7aab96" stroke-opacity="0.10" stroke-width="1"/>
<rect x="612" y="0" width="1" height="960" fill="#7aab96" fill-opacity="0.07"/>

<rect x="0" y="300" width="680" height="180" fill="#243830"/>
<rect x="0" y="296" width="680" height="3" fill="#7aab96" fill-opacity="0.45"/>
<rect x="0" y="481" width="680" height="1.5" fill="#7aab96" fill-opacity="0.15"/>

<rect x="56" y="52" width="138" height="26" rx="13" fill="#7aab96" fill-opacity="0.12" stroke="#7aab96" stroke-opacity="0.5" stroke-width="1"/>
<text x="125" y="70" text-anchor="middle" font-family="DM Sans, sans-serif" font-size="11" font-weight="500" fill="#7aab96" letter-spacing="0.14em">CURSO ZERO</text>
<text x="596" y="64" text-anchor="end" font-family="DM Sans, sans-serif" font-size="10" font-weight="400" fill="#ffffff" fill-opacity="0.30" letter-spacing="0.1em">GROWKIND WORLD</text>

<text x="56" y="272" font-family="Cormorant Garamond, Georgia, serif" font-size="18" font-weight="400" fill="#7aab96" fill-opacity="0.7" letter-spacing="0.2em">03 · MÓDULO</text>

<text x="56" y="352" font-family="Cormorant Garamond, Georgia, serif" font-size="52" font-weight="300" fill="#ffffff" fill-opacity="0.95">Quando o seu</text>
<text x="56" y="412" font-family="Cormorant Garamond, Georgia, serif" font-size="52" font-weight="300" font-style="italic" fill="#7aab96">filho perde</text>
<text x="56" y="472" font-family="Cormorant Garamond, Georgia, serif" font-size="52" font-weight="300" fill="#ffffff" fill-opacity="0.95">o chão.</text>

<rect x="56" y="508" width="56" height="2" fill="#7aab96" fill-opacity="0.6"/>
<rect x="120" y="509" width="480" height="1" fill="#7aab96" fill-opacity="0.12"/>

<text x="56" y="548" font-family="DM Sans, sans-serif" font-size="14" font-weight="300" fill="#ffffff" fill-opacity="0.5" letter-spacing="0.04em">Meltdown · Shutdown · Ser Chão</text>
<text x="56" y="570" font-family="DM Sans, sans-serif" font-size="14" font-weight="300" fill="#ffffff" fill-opacity="0.5" letter-spacing="0.04em">A sua presença antes de qualquer palavra</text>

<rect x="56" y="614" width="90" height="32" rx="16" fill="#2a4a3a" stroke="#7aab96" stroke-width="1"/>
<text x="101" y="635" text-anchor="middle" font-family="DM Sans, sans-serif" font-size="11" font-weight="500" fill="#a8d4c0" letter-spacing="0.08em">FAMÍLIAS</text>
<rect x="158" y="614" width="90" height="32" rx="16" fill="#7aab96" fill-opacity="0.10" stroke="#7aab96" stroke-opacity="0.35" stroke-width="1"/>
<text x="203" y="635" text-anchor="middle" font-family="DM Sans, sans-serif" font-size="11" font-weight="400" fill="#7aab96" letter-spacing="0.06em">1.5h CPD</text>

<rect x="56" y="874" width="524" height="0.75" fill="#ffffff" fill-opacity="0.08"/>
<text x="56" y="908" font-family="Cormorant Garamond, Georgia, serif" font-size="15" font-style="italic" fill="#ffffff" fill-opacity="0.28">"Desenvolvimento não se resolve.</text>
<text x="56" y="930" font-family="Cormorant Garamond, Georgia, serif" font-size="15" font-style="italic" fill="#ffffff" fill-opacity="0.28">Desenvolvimento acompanha-se."</text>
<circle cx="596" cy="919" r="5" fill="#7aab96" fill-opacity="0.5"/>
<circle cx="580" cy="919" r="3" fill="#7aab96" fill-opacity="0.25"/>
</svg>
